# xmcd CD database file
#
# Track frame offsets:
#	150
#	9389
#	36909
#	58660
#	78816
#	91307
#	117534
#	128387
#	151381
#	177168
#	195171
#	200216
#	207308
#	222955
#	248620
#	260202
#
# Disc length: 3599 seconds
#
# Revision: 0
# Processed by: cddbd v1.5.1PL0 Copyright (c) Steve Scherf et al.
# Submitted via: CDex 1.51
#
DISCID=d90e0d10
DTITLE=Antonio Onorato - Volo d'angelo
DYEAR=1995
DGENRE=Jazz
TTITLE0=Volo d'angelo
TTITLE1=Danza con me
TTITLE2=Voi querida
TTITLE3=Quintessenza
TTITLE4=Suonata n°. 6
TTITLE5=San Gennaro
TTITLE6=Vicino al mare
TTITLE7=Mora Mora
TTITLE8=Porta Capuana
TTITLE9=Solo con te
TTITLE10=Inno
TTITLE11=Il ragno
TTITLE12=Turkish Airlines
TTITLE13=Mapolydian
TTITLE14=Calabria mia
TTITLE15=Suonne
EXTD=YEAR: 1995
EXTT0=
EXTT1=
EXTT2=
EXTT3=
EXTT4=
EXTT5=
EXTT6=
EXTT7=
EXTT8=
EXTT9=
EXTT10=
EXTT11=
EXTT12=
EXTT13=
EXTT14=
EXTT15=
PLAYORDER=
